<svg width="482" height="102" viewBox="0 0 482 102" fill="none" xmlns="http://www.w3.org/2000/svg">
<g filter="url(#filter0_d_3_7)">
<path d="M25.1562 74.9844C21.375 74.9844 17.8438 74.625 14.5625 73.9062C11.3125 73.1875 8.1875 72.1562 5.1875 70.8125L5.04688 56.4688H14.5625L16.3906 63.7812C17.4531 64.3125 18.6094 64.7344 19.8594 65.0469C21.1406 65.3594 22.5938 65.5156 24.2188 65.5156C27.2812 65.5156 29.4375 65.0156 30.6875 64.0156C31.9375 63.0156 32.5625 61.7656 32.5625 60.2656C32.5625 58.8594 31.8906 57.625 30.5469 56.5625C29.2344 55.4688 26.5938 54.5156 22.625 53.7031C16.625 52.4531 12.2031 50.5156 9.35938 47.8906C6.51562 45.2656 5.09375 41.9062 5.09375 37.8125C5.09375 35 5.79688 32.4375 7.20312 30.125C8.64062 27.8125 10.8125 25.9531 13.7188 24.5469C16.6562 23.1406 20.4062 22.4375 24.9688 22.4375C28.7812 22.4375 32.2656 22.8125 35.4219 23.5625C38.6094 24.2812 41.2812 25.2344 43.4375 26.4219L43.5781 40.2969H34.1094L32.6562 33.6406C31.8125 33.0156 30.8125 32.5469 29.6562 32.2344C28.5312 31.9219 27.25 31.7656 25.8125 31.7656C23.4062 31.7656 21.5625 32.25 20.2812 33.2188C19 34.1875 18.3594 35.4375 18.3594 36.9688C18.3594 37.8438 18.5781 38.6562 19.0156 39.4062C19.4844 40.1562 20.3906 40.8594 21.7344 41.5156C23.0781 42.1719 25.0312 42.7969 27.5938 43.3906C33.875 44.8281 38.4531 46.75 41.3281 49.1562C44.2031 51.5312 45.6406 54.875 45.6406 59.1875C45.6406 63.9062 43.9219 67.7188 40.4844 70.625C37.0781 73.5312 31.9688 74.9844 25.1562 74.9844Z" fill="black"/>
<path d="M51.4531 74V65.7969L58.0625 64.3906V32.9375L50.75 31.5312V23.2812H71.75V64.3906L78.3125 65.7969V74H51.4531ZM57.5938 12.5469V0.875H71.75V12.5469H57.5938Z" fill="black"/>
<path d="M82.3906 74V65.7969L89 64.3906V32.9375L81.6875 31.5312V23.2812H101.703L102.266 29.9844C103.891 27.5469 105.922 25.6719 108.359 24.3594C110.828 23.0156 113.672 22.3438 116.891 22.3438C120.141 22.3438 122.922 23.0625 125.234 24.5C127.578 25.9375 129.328 28.1094 130.484 31.0156C132.047 28.2969 134.078 26.1719 136.578 24.6406C139.078 23.1094 142.016 22.3438 145.391 22.3438C150.391 22.3438 154.328 24.0469 157.203 27.4531C160.109 30.8594 161.562 36.0469 161.562 43.0156V64.3906L168.172 65.7969V74H141.969V65.7969L147.875 64.3906V42.9688C147.875 39.2188 147.25 36.625 146 35.1875C144.781 33.7188 143 32.9844 140.656 32.9844C138.531 32.9844 136.734 33.5938 135.266 34.8125C133.797 36 132.734 37.5781 132.078 39.5469V64.3906L137.609 65.7969V74H112.906V65.7969L118.438 64.3906V42.9688C118.438 39.3125 117.812 36.7344 116.562 35.2344C115.344 33.7344 113.531 32.9844 111.125 32.9844C109.188 32.9844 107.516 33.375 106.109 34.1562C104.703 34.9375 103.547 36.0625 102.641 37.5312V64.3906L108.547 65.7969V74H82.3906Z" fill="black"/>
<path d="M172.484 93.5V85.25L179.094 83.8438V32.9375L171.781 31.5312V23.2812H191.656L192.312 29.1875C193.812 27 195.625 25.3125 197.75 24.125C199.875 22.9375 202.406 22.3438 205.344 22.3438C209.438 22.3438 212.938 23.4688 215.844 25.7188C218.75 27.9375 220.969 31.0469 222.5 35.0469C224.062 39.0469 224.844 43.7188 224.844 49.0625V50.0469C224.844 55.0469 224.062 59.4219 222.5 63.1719C220.969 66.8906 218.734 69.7969 215.797 71.8906C212.891 73.9531 209.375 74.9844 205.25 74.9844C202.531 74.9844 200.125 74.5 198.031 73.5312C195.969 72.5312 194.203 71.0781 192.734 69.1719V83.8438L199.344 85.25V93.5H172.484ZM201.172 64.4844C204.672 64.4844 207.203 63.1875 208.766 60.5938C210.359 58 211.156 54.4844 211.156 50.0469V49.0625C211.156 45.8438 210.797 43.0469 210.078 40.6719C209.359 38.2656 208.25 36.3906 206.75 35.0469C205.281 33.6719 203.391 32.9844 201.078 32.9844C199.203 32.9844 197.547 33.4062 196.109 34.25C194.703 35.0938 193.578 36.2969 192.734 37.8594V60.0781C193.578 61.5156 194.703 62.6094 196.109 63.3594C197.547 64.1094 199.234 64.4844 201.172 64.4844Z" fill="black"/>
<path d="M229.25 74V65.7969L235.859 64.3906V10.5312L228.547 9.125V0.875H249.547V64.3906L256.156 65.7969V74H229.25Z" fill="black"/>
<path d="M284 74.9844C279.156 74.9844 274.922 73.9219 271.297 71.7969C267.672 69.6406 264.859 66.6875 262.859 62.9375C260.891 59.1875 259.906 54.9062 259.906 50.0938V48.2188C259.906 43.1875 260.844 38.7344 262.719 34.8594C264.594 30.9531 267.234 27.8906 270.641 25.6719C274.078 23.4219 278.125 22.3125 282.781 22.3438C287.375 22.3438 291.234 23.25 294.359 25.0625C297.484 26.875 299.859 29.4844 301.484 32.8906C303.109 36.2969 303.922 40.4219 303.922 45.2656V52.7188H274.109L274.016 53C274.203 55.2188 274.75 57.2031 275.656 58.9531C276.594 60.6719 277.906 62.0312 279.594 63.0312C281.281 64 283.328 64.4844 285.734 64.4844C288.234 64.4844 290.562 64.1719 292.719 63.5469C294.906 62.8906 297.031 61.9375 299.094 60.6875L302.797 69.125C300.703 70.8125 298.062 72.2188 294.875 73.3438C291.719 74.4375 288.094 74.9844 284 74.9844ZM274.203 43.6719H291.125V42.4531C291.125 40.3906 290.844 38.625 290.281 37.1562C289.75 35.6562 288.875 34.5 287.656 33.6875C286.469 32.875 284.922 32.4688 283.016 32.4688C281.203 32.4688 279.672 32.9531 278.422 33.9219C277.172 34.8594 276.188 36.1562 275.469 37.8125C274.781 39.4688 274.312 41.3438 274.062 43.4375L274.203 43.6719Z" fill="black"/>
<path d="M308.703 74V65.7969L315.219 64.9531L329.75 48.5938L316.016 32.3281L309.875 31.5312V23.2812H335V31.1562L331.062 31.7656L338.422 41.4219L345.781 31.7656L341.422 31.1562V23.2812H365.656V31.5312L359.984 32.3281L347 48.0312L361.484 64.9531L367.719 65.7969V74H341.703V66.1719L346.109 65.5625L338.281 55.8594L330.641 65.6094L334.953 66.1719V74H308.703Z" fill="black"/>
<path d="M372.781 74V65.0469L394.906 41.2812C397.156 38.75 398.922 36.5469 400.203 34.6719C401.484 32.7969 402.391 31.0938 402.922 29.5625C403.484 28 403.766 26.4531 403.766 24.9219C403.766 22.2656 403 20.0156 401.469 18.1719C399.969 16.3281 397.75 15.4062 394.812 15.4062C391.656 15.4062 389.266 16.4375 387.641 18.5C386.016 20.5312 385.203 23.3438 385.203 26.9375H371.891L371.797 26.6562C371.703 22.5312 372.578 18.8281 374.422 15.5469C376.297 12.2344 378.984 9.60938 382.484 7.67188C386.016 5.73438 390.172 4.76562 394.953 4.76562C399.641 4.76562 403.656 5.60938 407 7.29688C410.375 8.95312 412.969 11.2812 414.781 14.2812C416.594 17.2812 417.5 20.75 417.5 24.6875C417.5 27.4062 417.016 29.9688 416.047 32.375C415.078 34.75 413.562 37.2656 411.5 39.9219C409.438 42.5781 406.781 45.625 403.531 49.0625L390.266 63.3125L390.359 63.5469H408.031L408.734 57.0312H419.328V74H372.781Z" fill="black"/>
<path d="M425.047 93.5V85.25L431.656 83.8438V32.9375L424.344 31.5312V23.2812H444.219L444.875 29.1875C446.375 27 448.188 25.3125 450.312 24.125C452.438 22.9375 454.969 22.3438 457.906 22.3438C462 22.3438 465.5 23.4688 468.406 25.7188C471.312 27.9375 473.531 31.0469 475.062 35.0469C476.625 39.0469 477.406 43.7188 477.406 49.0625V50.0469C477.406 55.0469 476.625 59.4219 475.062 63.1719C473.531 66.8906 471.297 69.7969 468.359 71.8906C465.453 73.9531 461.938 74.9844 457.812 74.9844C455.094 74.9844 452.688 74.5 450.594 73.5312C448.531 72.5312 446.766 71.0781 445.297 69.1719V83.8438L451.906 85.25V93.5H425.047ZM453.734 64.4844C457.234 64.4844 459.766 63.1875 461.328 60.5938C462.922 58 463.719 54.4844 463.719 50.0469V49.0625C463.719 45.8438 463.359 43.0469 462.641 40.6719C461.922 38.2656 460.812 36.3906 459.312 35.0469C457.844 33.6719 455.953 32.9844 453.641 32.9844C451.766 32.9844 450.109 33.4062 448.672 34.25C447.266 35.0938 446.141 36.2969 445.297 37.8594V60.0781C446.141 61.5156 447.266 62.6094 448.672 63.3594C450.109 64.1094 451.797 64.4844 453.734 64.4844Z" fill="black"/>
<path d="M25.1562 74.9844C21.375 74.9844 17.8438 74.625 14.5625 73.9062C11.3125 73.1875 8.1875 72.1562 5.1875 70.8125L5.04688 56.4688H14.5625L16.3906 63.7812C17.4531 64.3125 18.6094 64.7344 19.8594 65.0469C21.1406 65.3594 22.5938 65.5156 24.2188 65.5156C27.2812 65.5156 29.4375 65.0156 30.6875 64.0156C31.9375 63.0156 32.5625 61.7656 32.5625 60.2656C32.5625 58.8594 31.8906 57.625 30.5469 56.5625C29.2344 55.4688 26.5938 54.5156 22.625 53.7031C16.625 52.4531 12.2031 50.5156 9.35938 47.8906C6.51562 45.2656 5.09375 41.9062 5.09375 37.8125C5.09375 35 5.79688 32.4375 7.20312 30.125C8.64062 27.8125 10.8125 25.9531 13.7188 24.5469C16.6562 23.1406 20.4062 22.4375 24.9688 22.4375C28.7812 22.4375 32.2656 22.8125 35.4219 23.5625C38.6094 24.2812 41.2812 25.2344 43.4375 26.4219L43.5781 40.2969H34.1094L32.6562 33.6406C31.8125 33.0156 30.8125 32.5469 29.6562 32.2344C28.5312 31.9219 27.25 31.7656 25.8125 31.7656C23.4062 31.7656 21.5625 32.25 20.2812 33.2188C19 34.1875 18.3594 35.4375 18.3594 36.9688C18.3594 37.8438 18.5781 38.6562 19.0156 39.4062C19.4844 40.1562 20.3906 40.8594 21.7344 41.5156C23.0781 42.1719 25.0312 42.7969 27.5938 43.3906C33.875 44.8281 38.4531 46.75 41.3281 49.1562C44.2031 51.5312 45.6406 54.875 45.6406 59.1875C45.6406 63.9062 43.9219 67.7188 40.4844 70.625C37.0781 73.5312 31.9688 74.9844 25.1562 74.9844Z" stroke="#B1A6A6"/>
<path d="M51.4531 74V65.7969L58.0625 64.3906V32.9375L50.75 31.5312V23.2812H71.75V64.3906L78.3125 65.7969V74H51.4531ZM57.5938 12.5469V0.875H71.75V12.5469H57.5938Z" stroke="#B1A6A6"/>
<path d="M82.3906 74V65.7969L89 64.3906V32.9375L81.6875 31.5312V23.2812H101.703L102.266 29.9844C103.891 27.5469 105.922 25.6719 108.359 24.3594C110.828 23.0156 113.672 22.3438 116.891 22.3438C120.141 22.3438 122.922 23.0625 125.234 24.5C127.578 25.9375 129.328 28.1094 130.484 31.0156C132.047 28.2969 134.078 26.1719 136.578 24.6406C139.078 23.1094 142.016 22.3438 145.391 22.3438C150.391 22.3438 154.328 24.0469 157.203 27.4531C160.109 30.8594 161.562 36.0469 161.562 43.0156V64.3906L168.172 65.7969V74H141.969V65.7969L147.875 64.3906V42.9688C147.875 39.2188 147.25 36.625 146 35.1875C144.781 33.7188 143 32.9844 140.656 32.9844C138.531 32.9844 136.734 33.5938 135.266 34.8125C133.797 36 132.734 37.5781 132.078 39.5469V64.3906L137.609 65.7969V74H112.906V65.7969L118.438 64.3906V42.9688C118.438 39.3125 117.812 36.7344 116.562 35.2344C115.344 33.7344 113.531 32.9844 111.125 32.9844C109.188 32.9844 107.516 33.375 106.109 34.1562C104.703 34.9375 103.547 36.0625 102.641 37.5312V64.3906L108.547 65.7969V74H82.3906Z" stroke="#B1A6A6"/>
<path d="M172.484 93.5V85.25L179.094 83.8438V32.9375L171.781 31.5312V23.2812H191.656L192.312 29.1875C193.812 27 195.625 25.3125 197.75 24.125C199.875 22.9375 202.406 22.3438 205.344 22.3438C209.438 22.3438 212.938 23.4688 215.844 25.7188C218.75 27.9375 220.969 31.0469 222.5 35.0469C224.062 39.0469 224.844 43.7188 224.844 49.0625V50.0469C224.844 55.0469 224.062 59.4219 222.5 63.1719C220.969 66.8906 218.734 69.7969 215.797 71.8906C212.891 73.9531 209.375 74.9844 205.25 74.9844C202.531 74.9844 200.125 74.5 198.031 73.5312C195.969 72.5312 194.203 71.0781 192.734 69.1719V83.8438L199.344 85.25V93.5H172.484ZM201.172 64.4844C204.672 64.4844 207.203 63.1875 208.766 60.5938C210.359 58 211.156 54.4844 211.156 50.0469V49.0625C211.156 45.8438 210.797 43.0469 210.078 40.6719C209.359 38.2656 208.25 36.3906 206.75 35.0469C205.281 33.6719 203.391 32.9844 201.078 32.9844C199.203 32.9844 197.547 33.4062 196.109 34.25C194.703 35.0938 193.578 36.2969 192.734 37.8594V60.0781C193.578 61.5156 194.703 62.6094 196.109 63.3594C197.547 64.1094 199.234 64.4844 201.172 64.4844Z" stroke="#B1A6A6"/>
<path d="M229.25 74V65.7969L235.859 64.3906V10.5312L228.547 9.125V0.875H249.547V64.3906L256.156 65.7969V74H229.25Z" stroke="#B1A6A6"/>
<path d="M284 74.9844C279.156 74.9844 274.922 73.9219 271.297 71.7969C267.672 69.6406 264.859 66.6875 262.859 62.9375C260.891 59.1875 259.906 54.9062 259.906 50.0938V48.2188C259.906 43.1875 260.844 38.7344 262.719 34.8594C264.594 30.9531 267.234 27.8906 270.641 25.6719C274.078 23.4219 278.125 22.3125 282.781 22.3438C287.375 22.3438 291.234 23.25 294.359 25.0625C297.484 26.875 299.859 29.4844 301.484 32.8906C303.109 36.2969 303.922 40.4219 303.922 45.2656V52.7188H274.109L274.016 53C274.203 55.2188 274.75 57.2031 275.656 58.9531C276.594 60.6719 277.906 62.0312 279.594 63.0312C281.281 64 283.328 64.4844 285.734 64.4844C288.234 64.4844 290.562 64.1719 292.719 63.5469C294.906 62.8906 297.031 61.9375 299.094 60.6875L302.797 69.125C300.703 70.8125 298.062 72.2188 294.875 73.3438C291.719 74.4375 288.094 74.9844 284 74.9844ZM274.203 43.6719H291.125V42.4531C291.125 40.3906 290.844 38.625 290.281 37.1562C289.75 35.6562 288.875 34.5 287.656 33.6875C286.469 32.875 284.922 32.4688 283.016 32.4688C281.203 32.4688 279.672 32.9531 278.422 33.9219C277.172 34.8594 276.188 36.1562 275.469 37.8125C274.781 39.4688 274.312 41.3438 274.062 43.4375L274.203 43.6719Z" stroke="#B1A6A6"/>
<path d="M308.703 74V65.7969L315.219 64.9531L329.75 48.5938L316.016 32.3281L309.875 31.5312V23.2812H335V31.1562L331.062 31.7656L338.422 41.4219L345.781 31.7656L341.422 31.1562V23.2812H365.656V31.5312L359.984 32.3281L347 48.0312L361.484 64.9531L367.719 65.7969V74H341.703V66.1719L346.109 65.5625L338.281 55.8594L330.641 65.6094L334.953 66.1719V74H308.703Z" stroke="#B1A6A6"/>
<path d="M372.781 74V65.0469L394.906 41.2812C397.156 38.75 398.922 36.5469 400.203 34.6719C401.484 32.7969 402.391 31.0938 402.922 29.5625C403.484 28 403.766 26.4531 403.766 24.9219C403.766 22.2656 403 20.0156 401.469 18.1719C399.969 16.3281 397.75 15.4062 394.812 15.4062C391.656 15.4062 389.266 16.4375 387.641 18.5C386.016 20.5312 385.203 23.3438 385.203 26.9375H371.891L371.797 26.6562C371.703 22.5312 372.578 18.8281 374.422 15.5469C376.297 12.2344 378.984 9.60938 382.484 7.67188C386.016 5.73438 390.172 4.76562 394.953 4.76562C399.641 4.76562 403.656 5.60938 407 7.29688C410.375 8.95312 412.969 11.2812 414.781 14.2812C416.594 17.2812 417.5 20.75 417.5 24.6875C417.5 27.4062 417.016 29.9688 416.047 32.375C415.078 34.75 413.562 37.2656 411.5 39.9219C409.438 42.5781 406.781 45.625 403.531 49.0625L390.266 63.3125L390.359 63.5469H408.031L408.734 57.0312H419.328V74H372.781Z" stroke="#B1A6A6"/>
<path d="M425.047 93.5V85.25L431.656 83.8438V32.9375L424.344 31.5312V23.2812H444.219L444.875 29.1875C446.375 27 448.188 25.3125 450.312 24.125C452.438 22.9375 454.969 22.3438 457.906 22.3438C462 22.3438 465.5 23.4688 468.406 25.7188C471.312 27.9375 473.531 31.0469 475.062 35.0469C476.625 39.0469 477.406 43.7188 477.406 49.0625V50.0469C477.406 55.0469 476.625 59.4219 475.062 63.1719C473.531 66.8906 471.297 69.7969 468.359 71.8906C465.453 73.9531 461.938 74.9844 457.812 74.9844C455.094 74.9844 452.688 74.5 450.594 73.5312C448.531 72.5312 446.766 71.0781 445.297 69.1719V83.8438L451.906 85.25V93.5H425.047ZM453.734 64.4844C457.234 64.4844 459.766 63.1875 461.328 60.5938C462.922 58 463.719 54.4844 463.719 50.0469V49.0625C463.719 45.8438 463.359 43.0469 462.641 40.6719C461.922 38.2656 460.812 36.3906 459.312 35.0469C457.844 33.6719 455.953 32.9844 453.641 32.9844C451.766 32.9844 450.109 33.4062 448.672 34.25C447.266 35.0938 446.141 36.2969 445.297 37.8594V60.0781C446.141 61.5156 447.266 62.6094 448.672 63.3594C450.109 64.1094 451.797 64.4844 453.734 64.4844Z" stroke="#B1A6A6"/>
</g>
<defs>
<filter id="filter0_d_3_7" x="0.541931" y="0.375" width="481.364" height="101.625" filterUnits="userSpaceOnUse" color-interpolation-filters="sRGB">
<feFlood flood-opacity="0" result="BackgroundImageFix"/>
<feColorMatrix in="SourceAlpha" type="matrix" values="0 0 0 0 0 0 0 0 0 0 0 0 0 0 0 0 0 0 127 0" result="hardAlpha"/>
<feOffset dy="4"/>
<feGaussianBlur stdDeviation="2"/>
<feComposite in2="hardAlpha" operator="out"/>
<feColorMatrix type="matrix" values="0 0 0 0 0 0 0 0 0 0 0 0 0 0 0 0 0 0 0.25 0"/>
<feBlend mode="normal" in2="BackgroundImageFix" result="effect1_dropShadow_3_7"/>
<feBlend mode="normal" in="SourceGraphic" in2="effect1_dropShadow_3_7" result="shape"/>
</filter>
</defs>
</svg>
